<svg xmlns="http://www.w3.org/2000/svg" width="828" height="1035" viewBox="0 0 828 1035">
  <defs>
    <style>
      .cls-1 {
        fill: #c92424;
        fill-rule: evenodd;
      }
    </style>
  </defs>
  <path id="Color_Fill_2" data-name="Color Fill 2" class="cls-1" d="M296,556c-0.5,7.858-.778,13.665-1,22,35.756,20.864,108.274,26.861,154,10,9.506-3.5,20.849-8.459,29-14,4.068-2.765,6.711-7.126,12-9v3c-3.33,5.271.779,8.62,0,13l-2,2c-0.148,1.015,2.065,2.791,1,5-0.1.2-2.823,1.3-3,2-0.87,3.456,1.8,1.341,0,7l1-1c2.7-.045.661,0.169,4-1,0.535,2.792,1.451,6.128,3,8-0.084-10.77.624-22.434,1-36h2c0.552,4.447,9.294,12.508,11,19,1.724-1.732,1.5-2.783,4-4a12.662,12.662,0,0,1-1,4c2.968-.673,3.036-0.3,6,1v1h-3c-1.021-.8-0.274-0.355-2-1v1h2l2,2c1.9-1.34.874-1.283,4-2v2a10.925,10.925,0,0,0-3,2c5.906-.128,20.57,4.111,23,7l1,1c-4.758-.092-3.9-2.085-5,2,1.791,3.367-2.4,10.9-4,14h1a94.383,94.383,0,0,0,5-9c1.922,0.552.857,1.641,2,0,1.743-2.089,1.535-5.469,4-7,6.323,4.895,15.92,7.763,21,11,1.228,1.524,2.158,4.177,3,6l1-1c0.282-.629-0.152-4.181,1-6,1.021,0.8.274,0.355,2,1,1.24,4.813,3.289,4.624,4,10,4.414,1.175,1.486,2.042,4,4,4.205,3.276,10.67,1.806,16,4,5.429,2.235,6.038,7.113,14,8,4.465-9.94,13.56-16.794,25-20l11-1c3.6-1.408,6.994-5.718,11-7,13.124-4.2,27.919,2.493,41-1,13.268-3.543,19.156.5,32,4h9a302.708,302.708,0,0,0,61,10c0.071,15.605,2.035,35.868,1,47-1.13,12.145-6.822,32.615-5,45,2.039,13.858,3.1,38.24,0,52-2.2,9.782,1.09,19.534,0,26-2.164,12.842.482,25.976-2,37v19c-5.053,22.524-.673,53.886-5,73q0.5,24,1,48c-4.619,19.025-11.71,36.7-21,51-1.654,2.55-5.278,13.78-7,15H95c0.14-23.11-5.258-47.961-10-68V956c-2.988-13.019-3.024-29.158-6-42V901c-6.458-27.8-8.884-53.844-18-79-6.935-19.138-11.844-40.64-20-60-2.069-4.911-7.354-9.566-9-14l-1-15a137.334,137.334,0,0,1-4-33c17.84-9.166,41.2-10.332,61-18,7.605-2.945,12.642-9.445,21-12l17-1c5.869-1.858,14.327-5.133,21-8,5.864-2.52,11.385-8.709,17-11,6.6-2.692,12.964-2.552,19-6,5.9-3.373,5.194-6.845,16-7,1.521,1.051,4.915,1.586,7,2,8.483,14.484,15.092,54.685,8,78-8.23,27.058-52.242,68.62-80,76v1h2c2.479-2.181,7.864-.785,8-1,5.846-2.89,10.722-7.722,16-11,4.458-2.769,9.7-3.136,14-6l10-10c3-1.885,5.53-1.772,8-4,9.438-8.512,12.746-17.637,23-26,0.536-6.92,5.543-15.2,9-20-1.754-.631-0.971-0.193-2-1l1-1,3,1a18.324,18.324,0,0,1,1,6c3.733,6.3-3.56,28.482-6,33-7.24,13.407-17.147,26.261-29,35l-4,1c-2.6,2.206-3.124,6.862-6,9-6.927,5.151-12.438,7.421-17,15h4c2.02-1.948,19.011-11.4,16-13a24.169,24.169,0,0,1-9,6v-2c7.209-4.255,12.955-12.108,21-15v1l-7,7h2c2.367-5.015,8.792-6.767,12-11,4.97-6.557,9.536-14.031,17-18v4c-13.585,13.276-21.6,31.459-32,48-10.456,16.627-24.565,33.713-26,59h1c0.85-12.21,16.434-44.186,23-51,8.149-8.457,20.229-12.01,27-22h-2c-2.286,3.325-7.964,7.617-12,9v-4c1.893-1.673,19.1-29.289,20-32h1v4c-3.11,1.7-5.439,6.8-7,10h1c7.579-12.436,19.03-24.107,25-38,4.9-11.4,6.994-23.317,12-34,0.8,1.021.355,0.274,1,2,2.994,5-.048,15.277,3,20a15.764,15.764,0,0,1,3-8c-0.358-3.638-3.287-18.915-2-24,1.4-5.538,4.4-13.352,6-19,2.587-9.146,1.857-19.664,4-28s0.706-25.208-1-32V602c15.413-8.957,13.187-24.732,17-44C286.261,556.251,290.256,555.892,296,556Zm212,24h2C508.812,581.609,509.582,581.224,508,580Zm-21,10c0.8,1.021.355,0.274,1,2h-1v-2Zm1,8c0.372,2.076.242,1.924,1,3v-3h-1Zm-2,3c-0.374,2.4-.63,1.538,0,4h1v-4h-1Zm87,21c1.66,1.116,1.069,1.77,2,0h-2ZM243,698c1.624,1.35,1.121.64,2,3,3.1,4.7-.711,16.476-2,21-4.573,16.054-8.631,32.1-21,40v-2c4.142-4.722,11.027-23.557,13-30V715C236.705,708.937,241.66,704.808,243,698Zm9,55c-1.6,7.293-7.87,21.382-12,27-4.709,6.407-12.964,10.765-16,19h1c2.68-2.853,5.96-3.393,9-6,3.079-2.64,3.449-8.8,6-12,0.555,1.3.03,0.741,1,1C245.4,777.954,255.394,760.134,252,753Zm-69,41q-0.5,1-1,2C183.744,794.6,183,794,183,794Zm4,5c1.567,1.243.51,0.642,2,0h-2Zm35,0-1,1c-1.923.775,2,1,2,1C222.369,799.246,222.807,800.029,222,799Zm-3,2q-0.5,1-1,2C219.744,801.6,219,801,219,801Zm-4,3q-0.5,1-1,2c0.735,0.42,2.681-1.795,3-2h-2Zm-42,3c2.076,0.372,1.924.242,3,1C173.924,807.628,174.076,807.758,173,807Zm25,8c1.624,1.35,1.121.64,2,3h-1c-1.073.752-.946,0.6-3,1v-1C197.624,816.65,197.121,817.36,198,815Z"/>
</svg>
