<svg xmlns="http://www.w3.org/2000/svg" width="828" height="1035" viewBox="0 0 828 1035">
  <defs>
    <style>
      .cls-1 {
        fill: #1d21d4;
        fill-rule: evenodd;
      }
    </style>
  </defs>
  <path id="Color_Fill_1" data-name="Color Fill 1" class="cls-1" d="M499,560c0.221,2.689.731,6.249,2,8,0.739-3.955.094-3.212,4-4,8.5,18.111,14.667,20.342,30,31,2.838,1.973,5.523,5.555,9,7l12,2c2.1,0.69,5.154,3.4,7,4l10,1c4.576,2.856,5.519,9.939,9,14,0.974,1.137,26.182,12.81,28,13,6.445-11.105,13.151-17.153,27-21h7l13-8c13.983-4.474,28.653,2.975,43-1,10.572-2.929,21.831,2.378,32,5,11.733,3.025,24.832,3.444,35,6,10.418,2.619,22.411.907,33,3,2.869,5.453,2.124,16.519,2,25-3.54,5.88,1.815,15.725,0,24-4.474,20.4-4.014,42.926-4,67q0.5,14,1,28c-2.226,9.5,1.387,20.878,0,29-3.337,19.545-.324,40.384-5,59v24c0,15.959-.86,32.525-4,45-4.5,17.861,7.746,30.56,3,48-3.625,13.32-8.619,29.954-15,42-4.1,7.74-12.334,13.93-14,24H94c-0.333-.33-0.667-0.67-1-1-0.175-8.61-2.211-18.36-4-26V998c-2.88-12.274-4.037-26.416-7-39-3.307-14.046-1.958-28.615-5-42V897c-6.359-26.895-11.548-52.537-20-78-6.438-19.394-12.45-38.259-19-58-6.16-18.564-13.544-37.4-12-62,16.749-8.9,39.056-10.2,58-18,8.162-3.361,15.584-10.318,24-13h18c2.855-.8,6.631-4.043,9-5h6c7.356-3,14.424-9.4,21-13,6.195-3.393,13.508-3.578,20-7,2.506-1.321,4.346-5.068,7-6l16,1c4.145,6.216,7.639,12.332,10,21,2.167,7.955-.3,17.788,1,27,7.088,50.317-38.44,87.3-70,103v2h2c4.432-4.534,10.334-5.5,16-9,13.024-8.042,28.891-19.934,38-32,3.955-5.239,9.115-11.111,12-17,4.461-9.106,3.722-19.1,11-25v-1l1,1c5.892,8.66,1.83,27.227-1,36-3.763,11.666-6.737,18.35-13,27l-8,7c-2.327,3.072-3.947,6.78-7,9-10.292,7.486-23.918,14.532-30,26h1c8.3-7.936,20.29-12.607,29-20,8.974-7.617,13.892-21.671,26-26l1,1c-10.128,21.733-34.471,41.839-41,65h1l15-17c1.264-1,3.222-.627,4-2,1.6-2.831.408-5.538,2-8,10.046-15.539,23.244-29.969,33-46,4.628-7.606,8.266-32.53,15-36v1c1.96,2.981,1.129,11.279,1,16-3.777,6.181-4.231,20.782-8,28-4.159,7.965-12.847,14.211-16,23h2c9.645-14.863,19.644-24.436,26-44,3.486-10.73-2.845-20.113-2-29,0.882-9.268,4.035-17.427,6-25,2.55-9.827,1.908-19.5,4-29,1.89-8.585.549-23.976-1-31-1.12-5.08,1.381-11.46,1-15-0.363-3.375-3.873-9.5-2-15,2.163-6.354,11.7-8.76,14-15v-7c1.88-6.787,2.241-16,4-25,3.711-2.274,8.716-4.075,12-2,3.239,1.273,2.632.879,3,5-1.965,3.153-1,11.931-1,17,9.33,5.783,22.84,11.535,34,15,11.134,3.457,24.345-1.32,37,2,17.677,4.637,51.582,1.773,68-3,14.543-4.228,32.511-10.751,44-19,2.01-1.443,7.993-10.394,10-8,2.419,4.1-.54,8.376,2,11v1l1-1c2.571-3.057.762-10.384,3-14C496.18,560.2,496.681,560.227,499,560ZM245,696c2.565,2.243,2.2,7.041,2,12-2.552,4.3-1.567,10.78-3,16-3.462,12.614-9.214,26.639-19,33v-2c10.541-13.689,13.133-39.555,18-58C244.754,696.369,243.971,696.807,245,696ZM224,797c-5.391,5.625-12.617,9.345-17,16h2C211.177,810.82,226.879,798.588,224,797Z"/>
</svg>
